<svg width="80" height="89" viewBox="0 0 80 89" fill="none" xmlns="http://www.w3.org/2000/svg">
<g clip-path="url(#clip0_38_2)">
<path d="M80 40C80 17.91 62.09 0 40 0C17.91 0 0 17.91 0 40C0 60.33 15.17 77.11 34.81 79.65L40 89L45.19 79.65C64.83 77.1 80 60.33 80 40Z" fill="#DD2A8B"/>
<path d="M41.22 35.97C44.2 34.08 46.02 31.81 46.68 29.17C48.05 23.72 44.92 19.88 37.3 17.64C36.79 17.49 36.26 17.79 36.13 18.31L30.64 40.13C29.91 39.59 28.97 39.18 27.82 38.89C25.94 38.42 24.44 38.4 23.33 38.84C22.22 39.28 21.49 40.19 21.15 41.55C20.81 42.9 20.99 44.03 21.68 44.92C22.38 45.81 23.59 46.48 25.32 46.92C27.04 47.35 28.52 47.27 29.75 46.66C30.99 46.06 31.78 45.05 32.14 43.64L36.83 24.99C36.92 24.63 37.31 24.43 37.66 24.56C39.07 25.11 40.21 25.73 40.96 26.39C42.23 27.51 42.67 28.83 42.29 30.34C42.05 31.3 41.35 32.07 40.81 32.81C40.51 33.23 40.15 33.62 39.75 33.98C39.25 34.43 39.17 35.18 39.61 35.69L39.64 35.72C40.03 36.17 40.69 36.27 41.2 35.96L41.22 35.97ZM58.97 51.46L56.52 34.14C56.48 33.83 56.17 33.62 55.86 33.69L44.4 36.49C44 36.59 43.74 36.97 43.79 37.38L46.01 53.11C45.42 52.96 44.74 52.94 43.95 53.05C42.61 53.24 41.6 53.67 40.93 54.34C40.26 55.01 39.99 55.85 40.14 56.86C40.28 57.87 40.74 58.61 41.5 59.07C42.27 59.53 43.27 59.68 44.5 59.5C45.78 59.32 46.74 58.87 47.38 58.14C48.01 57.42 48.25 56.5 48.1 55.39L46.16 41.65C46.12 41.38 46.3 41.12 46.56 41.05L54.84 39.01C55.15 38.93 55.45 39.14 55.5 39.46L56.87 49.13C56.28 48.98 55.6 48.96 54.81 49.07C53.47 49.26 52.46 49.69 51.79 50.36C51.12 51.03 50.85 51.87 51 52.88C51.14 53.89 51.6 54.63 52.36 55.09C53.13 55.55 54.13 55.7 55.36 55.52C56.64 55.34 57.6 54.89 58.24 54.16C58.87 53.44 59.11 52.52 58.96 51.41L58.97 51.46Z" fill="white"/>
</g>
<defs>
<clipPath id="clip0_38_2">
<rect width="80" height="89" fill="white"/>
</clipPath>
</defs>
</svg>
