<svg width="80" height="89" viewBox="0 0 80 89" fill="none" xmlns="http://www.w3.org/2000/svg">
<g clip-path="url(#clip0_38_4)">
<path d="M80 40C80 17.91 62.09 0 40 0C17.91 0 0 17.91 0 40C0 60.33 15.17 77.11 34.81 79.65L40 89L45.19 79.65C64.83 77.1 80 60.33 80 40Z" fill="#1A9DE2"/>
<path d="M44.1901 32.77C44.1901 25.51 38.2901 19.61 31.0301 19.61C23.7701 19.61 17.8701 25.51 17.8701 32.77C17.8701 40.03 23.7701 45.93 31.0301 45.93C38.2901 45.93 44.1901 40.03 44.1901 32.77ZM19.5401 32.85L22.2001 30.92L26.7701 32.41L27.9001 35.9L25.0201 39.86H21.9801C20.4601 37.93 19.5501 35.5 19.5301 32.86L19.5401 32.85ZM40.0801 39.85H37.0401L34.1601 35.89L35.2901 32.4L39.8601 30.91L42.5201 32.84C42.5001 35.48 41.5901 37.91 40.0701 39.84L40.0801 39.85ZM40.4601 26.2L39.3501 29.63L34.7501 31.12L31.7401 28.93V23.99L34.6701 21.86C37.0401 22.65 39.0601 24.19 40.4701 26.19L40.4601 26.2ZM27.4101 21.87L30.3401 24V28.94L27.3301 31.13L22.7301 29.64L21.6201 26.21C23.0201 24.2 25.0501 22.67 27.4201 21.88L27.4101 21.87ZM27.2801 43.64L26.2701 40.53L28.8501 36.98H33.2301L35.8101 40.53L34.8001 43.64C33.6201 44.05 32.3601 44.27 31.0401 44.27C29.7201 44.27 28.4601 44.04 27.2801 43.64Z" fill="white"/>
<path d="M62.7301 30.25C62.0301 29.41 60.1601 27.34 58.1101 28.83C58.0601 28.86 47.7601 36.54 40.6801 44.61C38.2901 47.33 36.1501 49.59 34.3301 51.4C34.6101 51.96 34.9501 52.5 35.3801 53C35.8001 53.51 36.2701 53.95 36.7701 54.32C38.8901 52.86 41.5001 51.16 44.6101 49.31C53.8401 43.82 63.2701 35.09 63.3101 35.05C65.1501 33.31 63.4401 31.1 62.7401 30.26L62.7301 30.25Z" fill="white"/>
<path d="M34.0401 54.1C33.6901 53.69 33.4001 53.25 33.1301 52.8C33.1001 52.75 33.0701 52.71 33.0401 52.66C32.6301 53.06 28.3901 56.84 28.0301 57.13C28.0201 57.12 28.0101 57.11 28.0001 57.09C27.6501 56.72 26.6701 57.22 25.9901 57.65C25.7001 57.83 25.6401 58.23 25.8501 58.5L28.1801 61.4C28.4001 61.67 28.8101 61.69 29.0501 61.43C29.6001 60.84 30.3201 59.93 30.0101 59.51C30.0101 59.5 29.9901 59.48 29.9801 59.47C30.3101 59.18 34.7301 55.76 35.1401 55.47C35.1901 55.44 35.2401 55.4 35.2901 55.36C34.8501 54.99 34.4301 54.58 34.0401 54.12V54.1Z" fill="white"/>
</g>
<defs>
<clipPath id="clip0_38_4">
<rect width="80" height="89" fill="white"/>
</clipPath>
</defs>
</svg>
