<svg width="80" height="89" viewBox="0 0 80 89" fill="none" xmlns="http://www.w3.org/2000/svg">
<path d="M80 40C80 17.91 62.09 0 40 0C17.91 0 0 17.91 0 40C0 60.33 15.17 77.11 34.81 79.65L40 89L45.19 79.65C64.83 77.1 80 60.33 80 40Z" fill="#F8B500"/>
<path d="M48.1827 22.5503C45.3268 25.955 45.7044 30.9746 49.0252 33.7605C52.3459 36.5465 57.3551 36.0466 60.2109 32.642C63.0668 29.2373 65.5592 20.799 62.2384 18.0095C58.9176 15.2201 51.0386 19.1421 48.1827 22.5468V22.5503Z" fill="white"/>
<path d="M49.8716 30.9955L52.4898 33.1907L27.7692 63.8188C27.2554 64.4585 26.3186 64.5494 25.6894 64.025L24.1618 62.7421C23.5326 62.2143 23.4627 61.274 24.0045 60.6588L49.8716 30.9955Z" fill="white"/>
<path d="M32.6871 24.721C30.5059 22.2217 25.4303 17.9746 24.9445 17.5272C24.5879 17.2021 24.0915 16.9853 23.6196 17.0902C22.6619 17.4293 22.7003 18.2158 23.3715 18.9533L29.5621 26.3814C30.7017 27.6188 28.87 28.9192 27.8947 27.9509L21.4594 20.3341C20.9455 19.7294 20.0996 19.7748 19.5928 20.1768C19.1104 20.6067 18.9181 21.4282 19.425 22.0399L25.8079 29.7022C26.5944 30.8278 24.9969 32.4078 23.9727 31.0725L17.7331 23.6863C17.1319 22.8998 16.3524 22.7216 15.856 23.6059C15.6707 24.0534 15.7966 24.5777 16.0553 24.9867C16.6879 25.8291 20.4946 33.0894 23.1373 35.1658C25.1157 36.6828 27.5312 37.1163 29.0448 37.1547C29.8732 37.1757 30.6737 36.7423 31.4392 37.1058L53.0313 63.8189C53.5451 64.4586 54.4819 64.5494 55.1111 64.0251L56.6387 62.7422C57.2679 62.2144 57.3378 61.2741 56.796 60.6589L34.1867 34.7008C34.005 33.9039 34.5503 33.2292 34.6726 32.4357C35.0501 30.4782 34.6202 26.7904 32.6871 24.7245V24.721Z" fill="white"/>
</svg>
