<svg width="80" height="89" viewBox="0 0 80 89" fill="none" xmlns="http://www.w3.org/2000/svg">
<g clip-path="url(#clip0_38_7)">
<path d="M80 40C80 17.91 62.09 0 40 0C17.91 0 0 17.91 0 40C0 60.33 15.17 77.11 34.81 79.65L40 89L45.19 79.65C64.83 77.1 80 60.33 80 40Z" fill="#E20C34"/>
<path d="M54.8 37.96C53.16 36.39 51.1 35.17 48.77 34.29L54.18 41.85C55.81 40.7 55.92 39.02 54.81 37.96H54.8Z" fill="white"/>
<path d="M37.5799 32.64C36.3499 32.68 35.1099 32.78 33.8499 32.94C23.3599 34.31 17.2999 40.55 18.4899 47.41C19.6899 54.27 28.5899 58.72 39.0799 57.35C43.6299 56.76 47.9799 55.57 50.5899 52.99C51.8099 51.79 52.3999 48.9 47.3899 48.72C42.6599 48.55 42.4199 44.2 46.0999 43.26L37.6699 32.78C37.6699 32.78 37.5999 32.68 37.5699 32.64H37.5799ZM22.0999 42.28C22.0999 41.45 23.4599 40.78 25.1399 40.78C26.8199 40.78 28.1799 41.45 28.1799 42.28C28.1799 43.11 26.8199 43.78 25.1399 43.78C23.4599 43.78 22.0999 43.11 22.0999 42.28ZM25.5399 50.99C23.8599 50.99 22.4999 50.32 22.4999 49.49C22.4999 48.66 23.8599 47.99 25.5399 47.99C27.2199 47.99 28.5799 48.66 28.5799 49.49C28.5799 50.32 27.2199 50.99 25.5399 50.99ZM28.2199 37.06C28.2199 36.23 29.5799 35.56 31.2599 35.56C32.9399 35.56 34.2999 36.23 34.2999 37.06C34.2999 37.89 32.9399 38.56 31.2599 38.56C29.5799 38.56 28.2199 37.89 28.2199 37.06ZM40.1499 52.88C40.1499 54 38.3099 54.91 36.0499 54.91C33.7899 54.91 31.9499 54 31.9499 52.88C31.9499 51.76 33.7899 50.85 36.0499 50.85C38.3099 50.85 40.1499 51.76 40.1499 52.88Z" fill="white"/>
<path d="M37.9699 29.06H38.0299L40.7399 27.05L40.7599 27C41.2099 25.73 40.9199 24.18 39.9999 22.95C39.1299 21.79 38.0599 21.05 37.0199 20.33C36.3099 19.84 35.5799 19.34 34.9099 18.7C34.3599 18.17 34.1799 17.9 34.1799 17.9L34.0099 17.62L33.8299 17.82C32.9799 18.76 32.5199 20.32 32.5799 22.11C32.6399 23.98 33.2499 25.79 34.2999 27.19C35.2199 28.42 36.6199 29.14 37.9699 29.07V29.06Z" fill="white"/>
<path d="M42.8001 28.84C42.5901 28.55 42.1801 28.49 41.9001 28.7L39.1101 30.81C38.8201 31.03 38.7701 31.44 39.0001 31.72L59.0101 56.6C59.5201 57.23 60.4301 57.34 61.0701 56.85C61.7101 56.36 61.8501 55.45 61.3801 54.8L42.8001 28.83V28.84Z" fill="white"/>
</g>
<defs>
<clipPath id="clip0_38_7">
<rect width="80" height="89" fill="white"/>
</clipPath>
</defs>
</svg>
