<svg width="80" height="89" viewBox="0 0 80 89" fill="none" xmlns="http://www.w3.org/2000/svg">
<g clip-path="url(#clip0_38_6)">
<path d="M80 40C80 17.91 62.09 0 40 0C17.91 0 0 17.91 0 40C0 60.33 15.17 77.11 34.81 79.65L40 89L45.19 79.65C64.83 77.1 80 60.33 80 40Z" fill="#6CB031"/>
<path d="M25.27 50.77L25.19 50.8C25.12 50.82 25 50.87 24.89 50.92C24.6 51.04 24.23 51.2 23.78 51.27H23.7C22.36 51.43 21.11 50.54 20.79 49.22C20.74 49 20.71 48.8 20.71 48.59V25.5C20.05 25.74 19.39 26.01 18.75 26.31V53.28C18.75 53.94 19.26 54.51 19.92 54.55C20.02 54.55 20.13 54.56 20.24 54.56C20.68 54.56 21.16 54.47 21.67 54.28C25.4 53 27.87 52.41 30.99 52.41C33.83 52.41 39.33 53.98 39.36 53.98V51.64L38.65 51.33C34.51 49.5 29.63 49.3 25.28 50.79L25.27 50.77Z" fill="white"/>
<path d="M59.2999 25.49V48.58C59.2999 48.79 59.2799 48.99 59.2199 49.21C58.8999 50.54 57.6499 51.43 56.3099 51.28H56.2299C55.7799 51.2 55.4099 51.04 55.1199 50.92C55.0099 50.87 54.8899 50.82 54.8199 50.8L54.7399 50.77C50.3899 49.28 45.5099 49.48 41.3699 51.31L40.6599 51.62V53.96C40.6599 53.96 46.1899 52.39 49.0299 52.39C52.1599 52.39 54.6199 52.98 58.3499 54.26C58.8599 54.45 59.3399 54.54 59.7799 54.54C59.8899 54.54 59.9899 54.54 60.0999 54.53C60.7599 54.48 61.2699 53.92 61.2699 53.26V26.29C60.6299 25.99 59.9699 25.72 59.3099 25.48L59.2999 25.49Z" fill="white"/>
<path d="M56.7899 24.23C51.7399 21.98 45.7099 22 40.6499 24.23V49.7C45.2199 47.68 50.5799 47.49 55.2999 49.1C55.7099 49.22 56.0899 49.45 56.4999 49.52C56.9599 49.57 57.3999 49.24 57.5099 48.79C57.5299 48.72 57.5399 48.64 57.5399 48.57V25.4C57.5399 24.9 57.2399 24.44 56.7899 24.23Z" fill="white"/>
<path d="M23.21 24.23C22.76 24.43 22.45 24.89 22.46 25.4V48.57C22.46 48.65 22.47 48.72 22.49 48.79C22.6 49.24 23.04 49.57 23.5 49.52C23.92 49.45 24.29 49.22 24.7 49.1C29.42 47.48 34.78 47.67 39.35 49.7V24.23C34.29 22 28.26 21.98 23.21 24.23Z" fill="white"/>
</g>
<defs>
<clipPath id="clip0_38_6">
<rect width="80" height="89" fill="white"/>
</clipPath>
</defs>
</svg>
