<?xml version="1.0" encoding="UTF-8"?><svg id="_レイヤー_2" xmlns="http://www.w3.org/2000/svg" viewBox="0 0 340.16 340.17"><defs><style>.cls-1{fill:#0079c4;}</style></defs><g id="Pattern_:_A"><g><g><g><path class="cls-1" d="M186.72,36.24c.87,.59,1.92,1.3,1.92,2s-.56,1.38-1.38,1.38c-.59,0-.82-.25-1.16-.87-.51-.97-.84-1.41-1.84-2.64-.1-.13-.16-.26-.16-.39,0-.25,.16-.59,.62-.59,.26,0,1.25,.59,2,1.1Zm2.54,5.59c0,.15-.41,2.77-1.7,7.12-.64,2.21-.94,2.9-1.82,2.9-.77,0-1.36-.64-1.36-1.31,0-.36,.1-.56,.33-.89,1.66-2.57,2.79-6.13,3.33-7.85,.11-.28,.18-.56,.64-.56,.22,0,.56,.2,.56,.59Zm.08-9.82c0,.69-.59,1.31-1.33,1.31-.51,0-.82-.21-1.1-.82-.54-1.13-1.02-1.77-1.87-2.9-.11-.13-.13-.23-.13-.39,0-.28,.21-.56,.61-.56s3.83,2.28,3.83,3.36Zm6,18.74c0,.77-.31,1.49-1.23,1.49s-1.23-.69-1.23-1.49v-4.9c-1.54,2.72-3.56,4.43-3.95,4.43-.33,0-.59-.26-.59-.59,0-.23,.13-.39,.29-.54,1.36-1.42,2.92-4.05,3.72-7.03-1.33,0-2.56-.11-2.56-2.03v-3.02c0-1.46,.69-2.03,2.33-2.03h.77v-2.43h-2.49c-.2,0-.72-.02-.72-.58,0-.52,.49-.57,.72-.57h2.49v-1.49c0-.75,.29-1.46,1.21-1.46s1.26,.64,1.26,1.46v1.49h2.59c.23,0,.72,.05,.72,.57,0,.56-.54,.58-.72,.58h-2.59v2.43h.88c1.75,0,2.33,.67,2.33,2.03v3.02c0,1.54-.77,2.03-2.33,2.03h-.44c.1,.39,.67,2.18,2.59,4.64,.08,.1,.18,.23,.18,.43,0,.36-.28,.59-.59,.59-.57,0-1.98-1.82-2.62-2.69v5.64Zm-2.31-14.51c-.97,0-1.3,0-1.3,1.07v2.59c0,.92,.09,1.1,1.3,1.07v-4.74Zm2.16,4.74c1.1,0,1.44,0,1.44-1.07v-2.59c0-1.07-.34-1.07-1.44-1.07v4.74Zm7.28,8c0,1.21-3.87,3.23-4.23,3.23-.3,0-.59-.26-.59-.59,0-.23,.12-.36,.33-.54,1.11-1,1.34-1.33,2.24-2.74,.2-.33,.46-.54,1-.54,.59,0,1.25,.57,1.25,1.18Zm2.49-15.43c1.9,0,2.23,.87,2.23,1.98v10.15c0,1.2-.43,1.97-2.23,1.97h-3.33c-1.93,0-2.23-.9-2.23-1.97v-10.15c0-.93,.2-1.77,1.64-1.95,.08-.25,.51-1.61,.74-2.77h-2.51c-.25,0-.72-.05-.72-.56,0-.54,.49-.59,.72-.59h7.95c.23,0,.72,.02,.72,.59,0,.54-.49,.56-.72,.56h-2.75c-.38,.71-.67,1.18-1.56,2.75h2.05Zm-.1,4.12v-1.92c0-.87-.18-1.05-1.05-1.05h-1.08c-.84,0-1.02,.15-1.02,1.05v1.92h3.15Zm-3.15,1.16v3.13h3.15v-3.13h-3.15Zm0,4.31v2.27c0,.93,.18,1.06,1.02,1.06h1.08c.87,0,1.05-.16,1.05-1.06v-2.27h-3.15Zm4.46,5.56c.52,.98,1.08,1.69,1.72,2.38,.15,.16,.26,.28,.26,.46,0,.31-.26,.57-.59,.57-.43,0-3.77-1.98-3.77-3.06,0-.69,.7-1.13,1.31-1.13,.57,0,.79,.21,1.07,.77Z"/><path class="cls-1" d="M213.78,36.75c0-2.02,1.1-2.43,2.7-2.43h13.38c1.82,0,2.69,.59,2.69,2.43v4.46c0,1.95-1.03,2.44-2.69,2.44h-13.38c-.7,5.64-4.24,8.72-4.82,8.72-.31,0-.59-.23-.59-.61,0-.18,.02-.23,.33-.67,.87-1.28,2.38-3.67,2.38-9.3v-5.03Zm20.36-7.33c.26,0,.72,.08,.72,.59s-.49,.59-.72,.59h-22.31c-.26,0-.72-.08-.72-.59,0-.54,.49-.59,.72-.59h22.31Zm-17.57,12.31c0,.28,0,.36-.02,.74h12.05c1,0,1.21-.28,1.21-1.2v-4.57c0-.95-.26-1.2-1.21-1.2h-10.84c-1,0-1.19,.26-1.19,1.2v5.03Z"/><path class="cls-1" d="M247.63,44.73c-1.36,3.69-2.79,4.69-4.65,4.69-3.25,0-5.74-3.56-5.74-7.56,0-5.05,3.97-11.02,11.92-11.02,5.26,0,10.36,2.66,10.36,9.51,0,8.87-8.72,9.97-9.18,9.97-.39,0-.72-.31-.72-.72,0-.51,.26-.58,1.12-.87,2.05-.67,5.77-3.36,5.77-8.85,0-6.18-5.1-7.31-6.95-7.49-.39,5.64-.59,8.64-1.95,12.33Zm-7.77-1.92c0,3.69,1.75,5.05,2.93,5.05s2.07-2.44,2.58-4.28c1-3.49,1.08-5.23,1.42-11.13-5.93,1.82-6.93,7.98-6.93,10.36Z"/><path class="cls-1" d="M276.84,36.47c.26,0,.72,.08,.72,.59s-.51,.59-.72,.59h-3.43c-.97,.92-1.87,1.8-4.02,3.36h4.64c1.59,0,2.38,.44,2.38,2.05v6.46c0,1.7-.9,2.08-2.38,2.08h-4.9c-1.59,0-2.39-.46-2.39-2.08v-6.46c0-.1,0-.2,.03-.36-.77,.44-2.28,1.29-2.72,1.29-.28,0-.56-.25-.56-.59,0-.25,.1-.43,.66-.72,2.41-1.18,5.31-3.46,6.75-5.03h-6.36c-.23,0-.72-.05-.72-.59s.49-.59,.72-.59h4.15v-3.77h-2.41c-.23,0-.72-.08-.72-.59s.49-.59,.72-.59h2.41v-1.38c0-.57,0-1.62,1.31-1.62s1.36,1.02,1.36,1.62v1.38h1.82c.26,0,.72,.08,.72,.59,0,.54-.48,.59-.72,.59h-1.82v3.77h.54c1.9-2.47,2.49-3.8,3.16-5.39,.21-.46,.49-.94,1.26-.94,.85,0,1.38,.64,1.38,1.23,0,.74-1.28,2.9-3.17,5.1h2.33Zm-3.08,8.94v-2.17c0-.85-.15-1.08-1.08-1.08h-2.27c-.93,0-1.08,.23-1.08,1.08v2.17h4.43Zm-4.43,1.19v2.74c0,.87,.18,1.07,1.08,1.07h2.27c.9,0,1.08-.2,1.08-1.07v-2.74h-4.43Zm11.36,3.95c0,.62,0,1.62-1.28,1.62s-1.31-1-1.31-1.62V31.88c0-1.51,.8-2.03,2.33-2.03h4.59c1.13,0,1.72,.36,1.72,1.23,0,.49-.21,1.05-.43,1.59l-2.72,6.16c-.05,.1-.07,.15-.07,.23,0,.15,.02,.18,.33,.44,.51,.41,3.39,2.85,3.39,6.75,0,3.51-2.52,3.51-3.59,3.51h-1.66c-.21,0-.77,0-.77-.56,0-.59,.62-.59,.74-.59h.64c1.36,0,1.73-.97,1.73-2.33,0-3.39-1.36-4.97-2.39-6.23-.36-.44-.56-.69-.56-.92,0-.21,.12-.54,.15-.64l2.31-6.79s.07-.23,.07-.31c0-.23-.21-.36-.46-.36h-1.67c-.89,0-1.08,.2-1.08,1.08v18.46Z"/></g><g><path class="cls-1" d="M205.63,68.69v-2.13c0-1.81,.58-3.51,3.04-3.51s2.93,1.91,2.93,3.51v2.13h20.04c.48,0,1.49,.16,1.49,1.22s-.96,1.23-1.49,1.23h-46.04c-.48,0-1.49-.11-1.49-1.23,0-1.01,.96-1.22,1.49-1.22h20.04Zm19.39,20.3c3.95,0,5.65,1.39,5.65,5.06v12.95c0,3.94-2.34,4.9-5.65,4.9h-5.27c-.43,0-1.65,0-1.65-1.22s1.18-1.22,1.65-1.22h2.61c2.14,0,2.51-.59,2.51-2.51v-13.05c0-1.86-.37-2.5-2.51-2.5h-27.6c-2.13,0-2.5,.64-2.5,2.5v14.65c0,1.06,0,3.73-2.83,3.73s-2.93-2.67-2.93-3.73v-14.49c0-4.11,2.14-5.06,5.59-5.06h32.93Zm-1.33-7.77c0,3.19-1.97,3.89-4.53,3.89h-20.99c-2.77,0-4.58-.8-4.58-3.89v-2.24c0-3.25,2.13-3.83,4.58-3.83h20.99c2.72,0,4.53,.75,4.53,3.83v2.24Zm-4.58,21.68c0,3.09-1.44,4.21-4.85,4.21h-11.45c-3.78,0-4.85-1.49-4.85-4.21v-3.09c0-2.87,1.28-4.26,4.85-4.26h11.45c3.94,0,4.85,1.7,4.85,4.26v3.09Zm-1.06-23.87c0-1.07-.21-1.44-2.03-1.44h-14.71c-1.76,0-2.02,.38-2.02,1.44v2.13c0,1.12,.21,1.49,2.02,1.49h14.71c1.76,0,2.03-.43,2.03-1.49v-2.13Zm-4.48,20.99c0-1.66-.31-2.02-2.02-2.02h-6.02c-1.75,0-2.02,.42-2.02,2.02v2.61c0,1.65,.32,2.02,2.02,2.02h6.02c1.71,0,2.02-.38,2.02-2.02v-2.61Z"/><path class="cls-1" d="M253.27,108.91c0,.86,0,3.36-2.72,3.36s-2.71-2.45-2.71-3.36v-19.44c-2.88,6.28-6.39,10.81-7.51,10.81-.64,0-1.22-.48-1.22-1.22,0-.43,.16-.64,.37-.96,2.08-2.98,6.18-10.12,7.99-21.2h-6.02c-.54,0-1.49-.16-1.49-1.23s1.01-1.22,1.49-1.22h6.39v-8.1c0-.8,0-3.36,2.67-3.36s2.77,2.51,2.77,3.36v8.1h4.53c.43,0,1.49,.11,1.49,1.22s-1.06,1.23-1.49,1.23h-4.53v.32c1.28,7.03,4.15,11.77,6.02,14.81,.16,.26,.32,.64,.32,.85,0,.74-.59,1.23-1.23,1.23-1.22,0-4.05-4.42-5.11-6.02v20.83Zm27.33-6.12c-.59-1.38-1.55-3.78-4.37-8.9-.21-.38-.32-.59-.32-.96,0-.69,.59-1.17,1.22-1.17,.48,0,.7,.16,1.12,.64,4.79,5.33,10.39,13.37,10.39,15.4,0,1.38-1.38,2.98-3.36,2.98-1.27,0-2.18-.7-2.55-1.6-.22-.58-1.12-3.57-1.33-4.26-6.29,1.92-21.58,5.7-23.02,5.7-1.07,0-2.23-1.01-2.23-2.72,0-2.29,1.54-2.45,4.79-2.71,3.73-9.75,4.16-10.82,6.87-21.42,.53-2.13,1.44-2.88,2.99-2.88s3.89,1.07,3.89,3.14c0,.65-.16,1.18-.64,2.24-2.93,6.61-6.28,13.64-8.84,18.54,5.8-.54,11.93-1.5,15.39-2.03Zm-20.83-16.41c-.37,.32-.69,.59-1.17,.59-.7,0-1.22-.59-1.22-1.22,0-.43,.21-.75,.53-1.17,3.52-4.69,4.9-10.07,5.65-14.33,.21-1.33,.53-3.09,3.03-3.09,2.08,0,3.36,1.55,3.36,2.88,0,.96-2.67,9.59-10.18,16.35Zm12.63-19.07c-.48,0-1.5-.1-1.5-1.22s1.08-1.22,1.5-1.22h5.86c3.09,0,3.41,2.02,3.67,4.1,1.33,9.32,5.07,13.69,7.03,15.98,.21,.21,.37,.48,.37,.91,0,.74-.53,1.23-1.17,1.23-.96,0-7.78-5.17-10.81-13.69-.48-1.39-1.23-4.05-1.71-5.65-.05-.27-.42-.43-.85-.43h-2.39Z"/></g></g><g><g><path class="cls-1" d="M333.88,126.84c-3.25-8.51-10.41-16.03-19.95-16.03-11.41,0-20.67,9.25-20.67,20.67s9.25,20.67,20.67,20.67c2.14,0,4.2-.33,6.15-.93,.86,21.32-9.11,47.28-22.6,65.67,2.42-22.08-1.7-43.14-10.97-57.3-5.1-7.92-13.98-13.19-24.1-13.19-15.83,0-28.67,12.84-28.67,28.67s12.83,28.67,28.67,28.67c.34,0,.67-.04,1.01-.05-7.28,21.71-32.31,34.99-64.02,37.44v-36.89h-58.66v18.67c14.41-1.27,28.61,1.08,39,9.33,0,0,0,0-.01,.02,3.65,2.87,6.01,7.31,6.01,12.32,0,8.65-7.01,15.67-15.67,15.67s-15.67-7.01-15.67-15.67c0-2.31,.51-4.49,1.41-6.46-12.95-2.17-30.44,4.79-41.67,20.27,1.1,2.92,1.73,6.06,1.73,9.36,0,14.73-11.94,26.66-26.67,26.66s-26.67-11.94-26.67-26.66c0-7.73,3.31-14.68,8.57-19.54-7.61-8.07-30.8-13.35-52.98-1.63,28,55.53,85.52,93.61,151.95,93.61,93.93,0,170.08-76.15,170.08-170.08,0-15.23-2.12-32.36-6.28-43.25Z"/><path class="cls-1" d="M100.51,235.23c6.27-3.46,13.59-6.5,21.34-8.73-45.48-23.57-65.45-74.31-48.2-121.25,4.88,15.36,19.25,26.48,36.22,26.48,20.99,0,38-17.01,38-38,0-13.41-6.95-25.19-17.44-31.95h0s-17.9-12.6-44.64-7c8.49-17.34,22.82-30.57,35.14-33.66,0,9.2,7.46,16.67,16.67,16.67s16.67-7.46,16.67-16.67-7.46-16.67-16.67-16.67c-7.05,0-18.48,2.48-33.73,8.91C42.89,39.1,0,99.65,0,170.09c0,13.12,1.49,25.88,4.3,38.15,29.55-13.31,72.62-.24,96.22,27Z"/></g><path class="cls-1" d="M163.6,10.51c0-5.8,4.7-10.51,10.51-10.51s10.51,4.7,10.51,10.51-4.71,10.51-10.51,10.51-10.51-4.71-10.51-10.51Z"/><path class="cls-1" d="M158.33,161.04c0-6.4,5.19-11.59,11.59-11.59s11.59,5.19,11.59,11.59c0,1.67-.36,3.25-.99,4.69h24.26l-34.69-40.9-34.7,40.9h23.94c-.64-1.43-1-3.02-1-4.69Z"/><rect class="cls-1" x="154.91" y="174.31" width="30.33" height="20.64"/></g></g></g></svg>
