<svg width="41" height="40" viewBox="0 0 41 40" fill="none" xmlns="http://www.w3.org/2000/svg">
<path d="M20.4199 40C31.4656 40 40.4199 31.0457 40.4199 20C40.4199 8.9543 31.4656 0 20.4199 0C9.37423 0 0.419922 8.9543 0.419922 20C0.419922 31.0457 9.37423 40 20.4199 40Z" fill="#007BC0"/>
<path d="M13.4199 16.07V24.4699H11.8401C11.5501 24.4699 11.3201 24.71 11.3201 24.99V25.86H29.52V24.99C29.52 24.7 29.28 24.4699 29 24.4699H27.4199V16.07H24.6201V24.4699H21.8201V16.07H19.02V24.4699H16.22V16.07H13.4199ZM29.8701 26.57H10.97C10.39 26.57 9.91992 27.04 9.91992 27.62V28.32C9.91992 28.42 9.95002 28.5 10.02 28.57C10.09 28.64 10.17 28.67 10.27 28.67H30.5701C30.6701 28.67 30.7501 28.64 30.8201 28.57C30.8901 28.5 30.9199 28.42 30.9199 28.32V27.62C30.9199 27.04 30.4501 26.57 29.8701 26.57ZM30.9199 13.27V13.9699C30.9199 14.0699 30.8901 14.1499 30.8201 14.2199C30.7501 14.2899 30.6701 14.32 30.5701 14.32H29.52V14.84C29.52 15.13 29.28 15.36 29 15.36H11.8501C11.5601 15.36 11.3301 15.12 11.3301 14.84V14.32H10.28C10.18 14.32 10.1 14.2899 10.03 14.2199C9.96003 14.1499 9.92993 14.0699 9.92993 13.9699V13.27C9.92993 13.11 9.9999 13.01 10.1499 12.95L20.3 9.09995C20.39 9.05995 20.4801 9.05995 20.5701 9.09995L30.72 12.95C30.86 13.01 30.9399 13.12 30.9399 13.27H30.9199Z" fill="white"/>
</svg>
