<svg width="61" height="60" viewBox="0 0 61 60" fill="none" xmlns="http://www.w3.org/2000/svg">
<path d="M30.4199 60C46.9885 60 60.4199 46.5685 60.4199 30C60.4199 13.4315 46.9885 0 30.4199 0C13.8514 0 0.419922 13.4315 0.419922 30C0.419922 46.5685 13.8514 60 30.4199 60Z" fill="#1A9DE2"/>
<path d="M33.5601 24.5699C33.5601 19.1299 29.1299 14.7 23.6899 14.7C18.2499 14.7 13.8198 19.1299 13.8198 24.5699C13.8198 30.0099 18.2499 34.4399 23.6899 34.4399C29.1299 34.4399 33.5601 30.0099 33.5601 24.5699ZM15.0698 24.6299L17.0601 23.1799L20.4902 24.2899L21.3398 26.9L19.1802 29.8699H16.8999C15.7599 28.4199 15.0798 26.5999 15.0698 24.6199V24.6299ZM30.48 29.8799H28.2002L26.04 26.9099L26.8901 24.2999L30.3198 23.1899L32.3101 24.64C32.3001 26.62 31.61 28.44 30.48 29.89V29.8799ZM30.7598 19.64L29.9302 22.21L26.48 23.33L24.2202 21.6899V17.9899L26.4199 16.39C28.1999 16.98 29.71 18.14 30.77 19.64H30.7598ZM20.9702 16.39L23.1699 17.9899V21.6899L20.9102 23.33L17.46 22.21L16.6299 19.64C17.6799 18.14 19.2 16.98 20.98 16.39H20.9702ZM20.8701 32.7199L20.1099 30.39L22.04 27.7299H25.3301L27.2598 30.39L26.5 32.7199C25.62 33.0299 24.6702 33.2 23.6802 33.2C22.6902 33.2 21.7399 33.0299 20.8599 32.7199H20.8701Z" fill="white"/>
<path d="M47.4702 22.69C46.9402 22.06 45.5398 20.5 44.0098 21.62C43.9798 21.64 36.2499 27.4 30.9399 33.45C29.1499 35.49 27.5399 37.18 26.1699 38.54C26.3799 38.96 26.64 39.36 26.96 39.74C27.28 40.12 27.63 40.45 28 40.73C29.59 39.63 31.5399 38.36 33.8799 36.97C40.7999 32.85 47.8699 26.3 47.8999 26.27C49.2799 24.96 47.9902 23.31 47.4702 22.68V22.69Z" fill="white"/>
</svg>
