<svg width="41" height="40" viewBox="0 0 41 40" fill="none" xmlns="http://www.w3.org/2000/svg">
<path d="M20.4199 40C31.4656 40 40.4199 31.0457 40.4199 20C40.4199 8.9543 31.4656 0 20.4199 0C9.37423 0 0.419922 8.9543 0.419922 20C0.419922 31.0457 9.37423 40 20.4199 40Z" fill="#007BC0"/>
<path d="M27.6102 22.87C26.7502 22.87 25.4501 23.01 25.4501 22.15C25.4501 21.29 26.7402 20 27.6102 20C28.4802 20 29.0502 20.5701 29.0502 21.4301C29.0502 22.2901 28.4702 22.86 27.6102 22.86V22.87ZM13.2301 22.87C12.3701 22.87 11.7902 22.2999 11.7902 21.4399C11.7902 20.5799 12.3601 20.01 13.2301 20.01C14.1001 20.01 15.39 21.3 15.39 22.16C15.39 23.02 14.1001 22.88 13.2301 22.88V22.87ZM15.5602 15.61C15.8902 14.79 16.6802 14.25 17.5602 14.25H23.2702C24.1502 14.25 24.9401 14.79 25.2701 15.61L26.1701 17.85H14.6701L15.5702 15.61H15.5602ZM31.38 16.41H28.6901L27.9401 14.54C27.1701 12.62 25.3402 11.38 23.2702 11.38H17.5602C15.4902 11.38 13.66 12.62 12.89 14.54L12.14 16.41H9.45008C9.10008 16.41 8.84006 16.74 8.93006 17.08L9.20008 18.16C9.26008 18.4 9.4801 18.5699 9.7201 18.5699H10.6202C10.0202 19.0999 9.63001 19.86 9.63001 20.73V22.89C9.63001 23.61 9.91023 24.27 10.3502 24.77V27.2C10.3502 27.99 10.9902 28.64 11.7902 28.64H13.2301C14.0201 28.64 14.6701 28 14.6701 27.2V25.76H26.1701V27.2C26.1701 27.99 26.8102 28.64 27.6102 28.64H29.0502C29.8402 28.64 30.4901 28 30.4901 27.2V24.77C30.9301 24.26 31.2101 23.61 31.2101 22.89V20.73C31.2101 19.87 30.8201 19.0999 30.2201 18.5699H31.1202C31.3702 18.5699 31.58 18.4 31.64 18.16L31.91 17.08C31.99 16.74 31.74 16.41 31.39 16.41H31.38Z" fill="white"/>
</svg>
