<svg width="41" height="40" viewBox="0 0 41 40" fill="none" xmlns="http://www.w3.org/2000/svg">
<path d="M20.4199 40C31.4656 40 40.4199 31.0457 40.4199 20C40.4199 8.9543 31.4656 0 20.4199 0C9.37423 0 0.419922 8.9543 0.419922 20C0.419922 31.0457 9.37423 40 20.4199 40Z" fill="#007BC0"/>
<path d="M29.97 17.1899C28.73 17.1899 27.72 16.1799 27.72 14.9399H29.97V17.1899ZM29.97 25.05H27.72C27.72 23.81 28.73 22.8 29.97 22.8V25.05ZM20.4199 23.37C18.8699 23.37 17.6101 21.86 17.6101 20C17.6101 18.14 18.8699 16.63 20.4199 16.63C21.9699 16.63 23.23 18.14 23.23 20C23.23 21.86 21.9699 23.37 20.4199 23.37ZM10.8701 17.1899V14.9399H13.1201C13.1201 16.1799 12.1101 17.1899 10.8701 17.1899ZM10.8701 25.05V22.8C12.1101 22.8 13.1201 23.81 13.1201 25.05H10.8701ZM30.53 13.26H10.3101C9.69006 13.26 9.18994 13.76 9.18994 14.38V25.61C9.18994 26.23 9.69006 26.73 10.3101 26.73H30.53C31.15 26.73 31.6499 26.23 31.6499 25.61V14.38C31.6499 13.76 31.15 13.26 30.53 13.26Z" fill="white"/>
</svg>
