<svg width="41" height="40" viewBox="0 0 41 40" fill="none" xmlns="http://www.w3.org/2000/svg">
<path d="M20.4199 40C31.4656 40 40.4199 31.0457 40.4199 20C40.4199 8.9543 31.4656 0 20.4199 0C9.37423 0 0.419922 8.9543 0.419922 20C0.419922 31.0457 9.37423 40 20.4199 40Z" fill="#007BC0"/>
<path d="M31.6202 15.2701C31.2102 14.8601 30.55 14.8601 30.14 15.2701L27.3002 18.1101H23.9801L21.14 15.2701C20.73 14.8601 20.07 14.8601 19.66 15.2701C19.25 15.6801 19.25 16.3401 19.66 16.7501L22.7601 19.8501V28.5801C22.7601 29.1601 23.2302 29.6301 23.8102 29.6301H24.3302C24.9102 29.6301 25.38 29.1601 25.38 28.5801V24.9102H25.9V28.5801C25.9 29.1601 26.3701 29.6301 26.9501 29.6301H27.4701C28.0501 29.6301 28.5201 29.1601 28.5201 28.5801V19.8501L31.6202 16.7501C32.0302 16.3401 32.0302 15.6801 31.6202 15.2701ZM23.2802 15.2301C23.2802 13.9301 24.34 12.8701 25.64 12.8701C26.94 12.8701 28.0001 13.9301 28.0001 15.2301C28.0001 16.5301 26.94 17.5901 25.64 17.5901C24.34 17.5901 23.2802 16.5301 23.2802 15.2301Z" fill="white"/>
<path d="M15.6802 15.3199H15.2302C14.3202 15.7399 13.2503 15.7599 12.3003 15.3199H11.8503C10.7903 15.3199 9.93018 16.18 9.93018 17.24V22.6801C9.93018 23.2101 10.3601 23.64 10.8901 23.64H11.5303V29.08C11.5303 29.61 11.9602 30.04 12.4902 30.04H15.0503C15.5803 30.04 16.0103 29.61 16.0103 29.08V23.64H16.6501C17.1801 23.64 17.6104 23.2101 17.6104 22.6801V17.24C17.6104 16.18 16.7502 15.3199 15.6902 15.3199H15.6802ZM13.7603 9.56006C15.1703 9.56006 16.3203 10.71 16.3203 12.12C16.3203 13.53 15.1703 14.6801 13.7603 14.6801C12.3503 14.6801 11.2002 13.53 11.2002 12.12C11.2002 10.71 12.3503 9.56006 13.7603 9.56006Z" fill="white"/>
</svg>
