<svg width="40" height="40" viewBox="0 0 40 40" fill="none" xmlns="http://www.w3.org/2000/svg">
<path d="M20 40C31.0457 40 40 31.0457 40 20C40 8.9543 31.0457 0 20 0C8.9543 0 0 8.9543 0 20C0 31.0457 8.9543 40 20 40Z" fill="#007BC0"/>
<path d="M26.2675 14.4C25.8575 13.99 25.1975 13.99 24.7875 14.4L21.9475 17.24H18.6274L15.7875 14.4C15.3775 13.99 14.7175 13.99 14.3075 14.4C13.8975 14.81 13.8975 15.47 14.3075 15.88L17.4075 18.98V27.71C17.4075 28.29 17.8775 28.76 18.4575 28.76H18.9774C19.5574 28.76 20.0275 28.29 20.0275 27.71V24.04H20.5475V27.71C20.5475 28.29 21.0174 28.76 21.5974 28.76H22.1174C22.6974 28.76 23.1675 28.29 23.1675 27.71V18.98L26.2675 15.88C26.6775 15.47 26.6775 14.81 26.2675 14.4ZM17.9275 14.36C17.9275 13.06 18.9875 12 20.2875 12C21.5875 12 22.6475 13.06 22.6475 14.36C22.6475 15.66 21.5875 16.72 20.2875 16.72C18.9875 16.72 17.9275 15.66 17.9275 14.36Z" fill="white"/>
</svg>
