<svg width="41" height="40" viewBox="0 0 41 40" fill="none" xmlns="http://www.w3.org/2000/svg">
<path d="M20.4199 40C31.4656 40 40.4199 31.0457 40.4199 20C40.4199 8.9543 31.4656 0 20.4199 0C9.37423 0 0.419922 8.9543 0.419922 20C0.419922 31.0457 9.37423 40 20.4199 40Z" fill="#007BC0"/>
<path d="M24.71 23.01L23.78 24.17C23.65 24.33 23.49 24.42 23.28 24.44C23.07 24.46 22.89 24.41 22.73 24.28L19.6201 21.97C19.1601 21.6 18.9199 21.12 18.9199 20.52V13.31C18.9199 13.11 18.9899 12.93 19.1399 12.79C19.2799 12.65 19.4599 12.57 19.6599 12.57H21.1399C21.3399 12.57 21.5199 12.64 21.6599 12.79C21.7999 12.93 21.8799 13.11 21.8799 13.31V19.99L24.5701 21.96C24.7301 22.09 24.8201 22.25 24.8401 22.46C24.8601 22.66 24.8099 22.85 24.6799 23.01H24.71ZM20.4199 8.5C14.0699 8.5 8.91992 13.65 8.91992 20C8.91992 26.35 14.0699 31.5 20.4199 31.5C26.7699 31.5 31.9199 26.35 31.9199 20C31.9199 13.65 26.7699 8.5 20.4199 8.5Z" fill="white"/>
</svg>
