<svg width="80" height="89" viewBox="0 0 80 89" fill="none" xmlns="http://www.w3.org/2000/svg">
<path d="M80 40C80 17.91 62.09 0 40 0C17.91 0 0 17.91 0 40C0 60.33 15.17 77.11 34.81 79.65L40 89L45.19 79.65C64.83 77.1 80 60.33 80 40Z" fill="#EB6375"/>
<path d="M44.3379 54.3109L43.7751 52.9861L41.912 48.6027C41.3597 48.7495 40.7829 48.8439 40.1921 48.8718C40.0628 48.8788 39.93 48.8823 39.7971 48.8823C39.6643 48.8823 39.535 48.8788 39.4021 48.8718C38.8114 48.8439 38.2346 48.7495 37.6823 48.6027L35.8192 52.9861L35.2564 54.3109C35.148 54.6046 35.0467 54.9017 34.9593 55.2093C34.7181 56.0482 34.5748 56.9606 34.5608 57.8694C34.5818 59.2851 34.8964 60.6029 35.4242 61.7075C35.7738 62.3927 36.2037 63.0359 36.6861 63.5497C37.2384 64.116 37.8746 64.532 38.5632 64.7627C38.9722 64.892 39.3986 64.9654 39.7936 64.9654C40.1886 64.9654 40.6151 64.892 41.0241 64.7627C41.7127 64.532 42.3489 64.116 42.9012 63.5497C43.3871 63.0324 43.817 62.3927 44.1631 61.7075C44.6909 60.6029 45.0055 59.2851 45.0265 57.8694C45.0125 56.9606 44.8692 56.0482 44.628 55.2093C44.5406 54.9052 44.4392 54.6046 44.3309 54.3109H44.3379Z" fill="white"/>
<path d="M35.256 27.1224L35.8188 28.4473L37.6819 32.8307C38.2342 32.6839 38.811 32.5895 39.4017 32.5615C39.5311 32.5545 39.6639 32.5511 39.7967 32.5511C39.9296 32.5511 40.0624 32.5545 40.1917 32.5615C40.7825 32.5895 41.3593 32.6839 41.9116 32.8307L43.7747 28.4473L44.3375 27.1224C44.4458 26.8288 44.5472 26.5317 44.6346 26.2241C44.8758 25.3852 45.0191 24.4728 45.0331 23.564C45.0121 22.1483 44.6975 20.8304 44.1697 19.7258C43.8201 19.0407 43.3902 18.3975 42.9078 17.8837C42.3555 17.3174 41.7193 16.9014 41.0307 16.6707C40.6217 16.5414 40.1952 16.468 39.8002 16.468C39.4052 16.468 38.9788 16.5414 38.5698 16.6707C37.8812 16.9014 37.245 17.3174 36.6927 17.8837C36.2068 18.401 35.7768 19.0407 35.4308 19.7258C34.903 20.8304 34.5884 22.1483 34.5674 23.564C34.5814 24.4728 34.7247 25.3852 34.9659 26.2241C35.0533 26.5282 35.1546 26.8288 35.263 27.1224H35.256Z" fill="white"/>
<path d="M55.6282 49.1444C54.9745 48.5117 54.23 47.9664 53.4645 47.5435C53.1848 47.3897 52.9052 47.2498 52.622 47.1205L51.2867 46.5822L46.8683 44.7995C46.5747 45.3028 46.2322 45.7782 45.8441 46.2047C45.6659 46.4004 45.4806 46.5857 45.2849 46.764C44.8549 47.1555 44.383 47.498 43.8796 47.7882L45.6624 52.2066L46.2007 53.5419C46.3335 53.825 46.4698 54.1081 46.6237 54.3843C47.0466 55.1498 47.5919 55.8944 48.2246 56.548C49.2418 57.5338 50.3954 58.2434 51.5489 58.6524C52.2795 58.8901 53.038 59.0404 53.7441 59.0613C54.5341 59.0718 55.2787 58.9145 55.9288 58.5894C56.3099 58.3937 56.6629 58.142 56.9425 57.8624C57.2222 57.5827 57.4704 57.2297 57.6696 56.8487C57.9947 56.1985 58.1485 55.4539 58.138 54.6639C58.1171 53.9543 57.9667 53.1993 57.7291 52.4652C57.3201 51.3117 56.6105 50.1582 55.6247 49.1409L55.6282 49.1444Z" fill="white"/>
<path d="M23.9653 32.2889C24.6189 32.9216 25.3635 33.4669 26.129 33.8898C26.4087 34.0436 26.6883 34.1835 26.9715 34.3163L28.3068 34.8546L32.7251 36.6374C33.0188 36.134 33.3613 35.6586 33.7493 35.2321C33.9276 35.0364 34.1129 34.8511 34.3086 34.6728C34.7386 34.2813 35.2105 33.9388 35.7139 33.6487L33.9311 29.2303L33.3928 27.895C33.26 27.6118 33.1201 27.3287 32.9698 27.0525C32.5469 26.287 32.0016 25.5424 31.3689 24.8888C30.3517 23.903 29.1981 23.1934 28.0446 22.7844C27.314 22.5468 26.5555 22.3964 25.8459 22.3755C25.0559 22.365 24.3113 22.5223 23.6612 22.8439C23.2801 23.0396 22.9271 23.2913 22.6474 23.571C22.3678 23.8506 22.1196 24.2036 21.9204 24.5847C21.5953 25.2348 21.4415 25.9794 21.4485 26.7694C21.4694 27.479 21.6198 28.234 21.8609 28.9646C22.2699 30.1181 22.9795 31.2717 23.9653 32.2889Z" fill="white"/>
<path d="M63.8455 39.4863C63.6148 38.7976 63.1988 38.1614 62.6326 37.6091C62.1152 37.1233 61.4755 36.6933 60.7904 36.3473C59.6858 35.8194 58.368 35.5048 56.9523 35.4838C56.0434 35.4978 55.1311 35.6411 54.2922 35.8823C53.988 35.9697 53.6874 36.0711 53.3938 36.1795L52.069 36.7423L47.6855 38.6054C47.8324 39.1577 47.9267 39.7344 47.9547 40.3252C47.9617 40.4545 47.9652 40.5874 47.9652 40.7202C47.9652 40.853 47.9617 40.9824 47.9547 41.1152C47.9267 41.7059 47.8324 42.2827 47.6855 42.835L52.069 44.6981L53.3938 45.2609C53.6874 45.3693 53.9845 45.4707 54.2922 45.5581C55.1311 45.7992 56.0434 45.9426 56.9523 45.9565C58.368 45.9356 59.6858 45.621 60.7904 45.0931C61.4755 44.7436 62.1187 44.3136 62.6326 43.8312C63.1988 43.2789 63.6148 42.6428 63.8455 41.9541C63.9749 41.5452 64.0483 41.1187 64.0483 40.7237C64.0483 40.3287 63.9749 39.9022 63.8455 39.4933V39.4863Z" fill="white"/>
<path d="M25.3042 45.551C25.6083 45.4636 25.9089 45.3622 26.2026 45.2539L27.5274 44.6911L31.9108 42.8279C31.764 42.2757 31.6696 41.6989 31.6417 41.1081C31.6347 40.9788 31.6312 40.846 31.6312 40.7131C31.6312 40.5803 31.6347 40.4475 31.6417 40.3181C31.6696 39.7274 31.764 39.1506 31.9108 38.5983L27.5274 36.7352L26.2026 36.1724C25.9089 36.064 25.6118 35.9627 25.3042 35.8753C24.4653 35.6341 23.5529 35.4908 22.6441 35.4768C21.2284 35.4978 19.9106 35.8124 18.806 36.3402C18.1208 36.6897 17.4776 37.1197 16.9638 37.6021C16.3975 38.1544 15.9815 38.7906 15.7508 39.4792C15.6215 39.8882 15.5481 40.3146 15.5481 40.7096C15.5481 41.1046 15.6215 41.5311 15.7508 41.9401C15.9815 42.6287 16.3975 43.2649 16.9638 43.8172C17.4811 44.3031 18.1208 44.733 18.806 45.0791C19.9106 45.6069 21.2284 45.9215 22.6441 45.9425C23.5529 45.9285 24.4653 45.7852 25.3042 45.544V45.551Z" fill="white"/>
<path d="M45.2814 34.6729C45.4772 34.8511 45.6625 35.0364 45.8407 35.2322C46.2322 35.6621 46.5748 36.134 46.8649 36.6374L51.2833 34.8546L52.6186 34.3163C52.9018 34.1835 53.1849 34.0472 53.461 33.8899C54.2266 33.4669 54.9711 32.9216 55.6248 32.2889C56.6105 31.2717 57.3201 30.1181 57.7291 28.9646C57.9668 28.234 58.1171 27.4755 58.1416 26.7694C58.1521 25.9794 57.9948 25.2348 57.6697 24.5847C57.4739 24.2037 57.2223 23.8506 56.9426 23.571C56.663 23.2913 56.3099 23.0431 55.9289 22.8439C55.2787 22.5188 54.5342 22.365 53.7442 22.3755C53.0346 22.3965 52.2795 22.5468 51.5455 22.7845C50.3919 23.1934 49.2384 23.903 48.2212 24.8888C47.5885 25.5425 47.0432 26.287 46.6202 27.0525C46.4664 27.3322 46.3266 27.6118 46.1973 27.895L45.659 29.2303L43.8762 33.6487C44.3796 33.9423 44.8515 34.2849 45.2814 34.6729Z" fill="white"/>
<path d="M34.3088 46.7604C34.1131 46.5822 33.9278 46.3969 33.7495 46.2011C33.358 45.7712 33.0155 45.2993 32.7253 44.7959L28.3069 46.5787L26.9716 47.117C26.6885 47.2498 26.4054 47.3861 26.1292 47.5399C25.3637 47.9629 24.6191 48.5082 23.9655 49.1409C22.9797 50.1581 22.2701 51.3117 21.8611 52.4652C21.6234 53.1958 21.4731 53.9543 21.4522 54.6639C21.4417 55.4539 21.599 56.1984 21.9206 56.8486C22.1163 57.2296 22.368 57.5827 22.6476 57.8623C22.9273 58.142 23.2803 58.3902 23.6613 58.5894C24.3115 58.9145 25.0561 59.0683 25.8461 59.0613C26.5557 59.0403 27.3107 58.89 28.0413 58.6488C29.1948 58.2399 30.3484 57.5303 31.3656 56.5445C31.9983 55.8908 32.5436 55.1463 32.9665 54.3808C33.1203 54.1011 33.2602 53.8215 33.393 53.5383L33.9313 52.203L35.714 47.7846C35.2107 47.491 34.7353 47.1484 34.3088 46.7604Z" fill="white"/>
<path d="M41.1883 46.6248C44.4501 45.855 46.4702 42.5867 45.7004 39.3249C44.9305 36.063 41.6622 34.0429 38.4004 34.8128C35.1386 35.5826 33.1185 38.8509 33.8883 42.1127C34.6582 45.3746 37.9265 47.3947 41.1883 46.6248Z" fill="white"/>
</svg>
