<svg width="80" height="89" viewBox="0 0 80 89" fill="none" xmlns="http://www.w3.org/2000/svg">
<path d="M80 40C80 17.91 62.09 0 40 0C17.91 0 0 17.91 0 40C0 60.33 15.17 77.11 34.81 79.65L40 89L45.19 79.65C64.83 77.1 80 60.33 80 40Z" fill="#00B1BF"/>
<g clip-path="url(#clip0_43_270)">
<path d="M20.243 46.998C20.3514 47.6622 20.9281 48.1515 21.6028 48.1515H47.2637C47.9383 48.1515 48.5151 47.6622 48.6235 46.998L52.2728 24.6998C52.3392 24.3013 52.2239 23.8924 51.9652 23.5847C51.703 23.2771 51.3185 23.0989 50.9165 23.0989H17.9499C17.5444 23.0989 17.1634 23.2771 16.9012 23.5847C16.6391 23.8924 16.5272 24.3013 16.5901 24.6998L20.243 46.998ZM21.3196 36.5358H26.14L26.8671 45.397H22.7703L21.3196 36.5358ZM35.4627 34.4699V25.8534H41.5205L40.8144 34.4699H35.4627ZM40.6466 36.5358L39.9195 45.397H35.4627V36.5358H40.6466ZM33.3968 34.4699H28.0451L27.339 25.8534H33.3968V34.4699ZM33.3968 36.5358V45.397H28.9399L28.2129 36.5358H33.3968ZM46.0892 45.397H41.9924L42.7194 36.5358H47.5398L46.0892 45.397ZM47.8789 34.4699H42.8872L43.5933 25.8534H49.2876L47.8754 34.4699H47.8789ZM25.2661 25.8534L25.9722 34.4699H20.9806L19.5683 25.8534H25.2626H25.2661Z" fill="white"/>
<path d="M64.287 27.5069H55.2195C54.5448 27.5069 53.9681 27.9963 53.8597 28.6604L50.5914 48.6166C48.4801 48.7844 46.7253 50.2315 46.1101 52.1855H23.9412C23.2875 50.1092 21.344 48.5956 19.0544 48.5956C16.23 48.5956 13.9299 50.8922 13.9299 53.7201C13.9299 56.548 16.2265 58.8446 19.0544 58.8446C21.4594 58.8446 23.4763 57.1772 24.0251 54.94H46.0297C46.5785 57.1772 48.5954 58.8446 51.0004 58.8446C53.8248 58.8446 56.1248 56.548 56.1248 53.7201C56.1248 51.7206 54.9713 49.9903 53.3004 49.1479L56.394 30.2614H64.294C65.056 30.2614 65.6712 29.6462 65.6712 28.8841C65.6712 28.1221 65.056 27.5069 64.294 27.5069H64.287ZM51.0004 56.0866C49.693 56.0866 48.6304 55.0239 48.6304 53.7166C48.6304 52.4093 49.693 51.3466 51.0004 51.3466C52.3077 51.3466 53.3703 52.4093 53.3703 53.7166C53.3703 55.0239 52.3077 56.0866 51.0004 56.0866ZM21.4209 53.7166C21.4209 55.0239 20.3583 56.0866 19.0509 56.0866C17.7436 56.0866 16.6809 55.0239 16.6809 53.7166C16.6809 52.4093 17.7436 51.3466 19.0509 51.3466C20.3583 51.3466 21.4209 52.4093 21.4209 53.7166Z" fill="white"/>
</g>
<defs>
<clipPath id="clip0_43_270">
<rect width="52.4334" height="52.4334" fill="white" transform="translate(13.5801 14.5)"/>
</clipPath>
</defs>
</svg>
