<svg width="80" height="89" viewBox="0 0 80 89" fill="none" xmlns="http://www.w3.org/2000/svg">
<g clip-path="url(#clip0_38_5)">
<path d="M80 40C80 17.91 62.09 0 40 0C17.91 0 0 17.91 0 40C0 60.33 15.17 77.11 34.81 79.65L40 89L45.19 79.65C64.83 77.1 80 60.33 80 40Z" fill="#FC9135"/>
<path d="M40.0001 39.62C36.0101 39.62 32.4901 40.96 30.3801 42.99C32.6501 45.07 35.4401 46.47 38.4401 46.83L38.1901 55.09L38.1201 57.48L38.0701 59.11C38.0501 59.92 38.6001 60.6 39.3001 60.6H40.7301C41.4301 60.6 41.9801 59.93 41.9601 59.11L41.9101 57.48L41.8401 55.09L41.5901 46.83C44.5901 46.46 47.3801 45.06 49.6501 42.99C47.5401 40.95 44.0101 39.62 40.0301 39.62H40.0001ZM40.0001 17.61C30.9401 17.61 24.8601 22.83 24.8601 30.6C24.8601 34.6 26.3601 38.38 28.7601 41.29C31.3301 38.83 35.4101 37.23 40.0001 37.23C44.5901 37.23 48.6701 38.83 51.2401 41.29C53.6401 38.38 55.1401 34.6 55.1401 30.6C55.1401 22.83 49.0501 17.61 40.0001 17.61Z" fill="white"/>
</g>
<defs>
<clipPath id="clip0_38_5">
<rect width="80" height="89" fill="white"/>
</clipPath>
</defs>
</svg>
