<svg width="80" height="89" viewBox="0 0 80 89" fill="none" xmlns="http://www.w3.org/2000/svg">
<path d="M80 40C80 17.91 62.09 0 40 0C17.91 0 0 17.91 0 40C0 60.33 15.17 77.11 34.81 79.65L40 89L45.19 79.65C64.83 77.1 80 60.33 80 40Z" fill="#94465C"/>
<path d="M38.961 53.0525L29.3902 60.173C28.0409 61.1762 26.1917 59.8828 26.6706 58.2714L30.2012 46.4389C30.3724 45.8656 30.1592 45.2504 29.6768 44.9043L19.7879 37.8188C18.4071 36.8296 19.1062 34.6519 20.8051 34.6519H33.064C33.6722 34.6519 34.2071 34.2604 34.3958 33.6836L38.1326 22.1168C38.6534 20.5018 40.936 20.5018 41.4604 22.1168L45.1971 33.6836C45.3824 34.2604 45.9207 34.6519 46.5289 34.6519H58.7878C60.4867 34.6519 61.1858 36.8296 59.8051 37.8188L49.9161 44.9043C49.4302 45.2504 49.2205 45.8691 49.3918 46.4389L52.9223 58.2714C53.4047 59.8828 51.552 61.1762 50.2028 60.173L40.6319 53.0525C40.1355 52.6855 39.4574 52.6855 38.961 53.0525Z" fill="white"/>
</svg>
