<svg width="80" height="89" viewBox="0 0 80 89" fill="none" xmlns="http://www.w3.org/2000/svg">
<g clip-path="url(#clip0_38_8)">
<path d="M80 40C80 17.91 62.09 0 40 0C17.91 0 0 17.91 0 40C0 60.33 15.17 77.11 34.81 79.65L40 89L45.19 79.65C64.83 77.1 80 60.33 80 40Z" fill="#874455"/>
<path d="M58.8901 28.12H49.1101V23.27C49.1101 22.22 48.2501 21.36 47.2001 21.36H32.8001C31.7501 21.36 30.8901 22.22 30.8901 23.27V28.12H21.1101C19.9901 28.12 19.0701 29.03 19.0701 30.16V53.33C19.0701 54.45 19.9801 55.37 21.1101 55.37H58.8901C60.0101 55.37 60.9301 54.46 60.9301 53.33V30.16C60.9301 29.04 60.0201 28.12 58.8901 28.12ZM33.3501 23.83H46.6401V28.12H33.3501V23.83ZM55.3901 48.7H24.6101C24.1001 48.7 23.6901 48.29 23.6901 47.78C23.6901 47.27 24.1001 46.86 24.6101 46.86H55.3901C55.9001 46.86 56.3101 47.27 56.3101 47.78C56.3101 48.29 55.9001 48.7 55.3901 48.7ZM55.3901 42.74H24.6101C24.1001 42.74 23.6901 42.33 23.6901 41.82C23.6901 41.31 24.1001 40.9 24.6101 40.9H55.3901C55.9001 40.9 56.3101 41.31 56.3101 41.82C56.3101 42.33 55.9001 42.74 55.3901 42.74ZM55.3901 36.1H24.6101C24.1001 36.1 23.6901 35.69 23.6901 35.18C23.6901 34.67 24.1001 34.26 24.6101 34.26H55.3901C55.9001 34.26 56.3101 34.67 56.3101 35.18C56.3101 35.69 55.9001 36.1 55.3901 36.1Z" fill="white"/>
</g>
<defs>
<clipPath id="clip0_38_8">
<rect width="80" height="89" fill="white"/>
</clipPath>
</defs>
</svg>
