<svg width="41" height="40" viewBox="0 0 41 40" fill="none" xmlns="http://www.w3.org/2000/svg">
<path d="M20.4199 40C31.4656 40 40.4199 31.0457 40.4199 20C40.4199 8.9543 31.4656 0 20.4199 0C9.37423 0 0.419922 8.9543 0.419922 20C0.419922 31.0457 9.37423 40 20.4199 40Z" fill="#007BC0"/>
<path d="M20.4199 20.75C22.4899 20.75 24.1699 19.07 24.1699 17C24.1699 14.93 22.4899 13.25 20.4199 13.25C18.3499 13.25 16.6699 14.93 16.6699 17C16.6699 19.07 18.3499 20.75 20.4199 20.75ZM19.5 31.51C12.69 21.64 11.4199 20.63 11.4199 17C11.4199 12.03 15.4499 8 20.4199 8C25.3899 8 29.4199 12.03 29.4199 17C29.4199 20.63 28.1601 21.64 21.3401 31.51C20.8901 32.16 19.94 32.16 19.49 31.51H19.5Z" fill="white"/>
</svg>
