<svg width="43" height="44" viewBox="0 0 43 44" fill="none" xmlns="http://www.w3.org/2000/svg">
<path d="M13.8101 8.13989C14.9701 8.13989 15.9102 7.19992 15.9102 6.03992V2.73987C15.9102 1.57987 14.9701 0.649902 13.8101 0.649902C12.6501 0.649902 11.71 1.58987 11.71 2.73987V6.03992C11.71 7.19992 12.6501 8.13989 13.8101 8.13989Z" fill="#007BC0"/>
<path d="M29.27 8.13989C30.43 8.13989 31.3701 7.19992 31.3701 6.03992V2.73987C31.3701 1.57987 30.43 0.649902 29.27 0.649902C28.11 0.649902 27.1699 1.58987 27.1699 2.73987V6.03992C27.1699 7.19992 28.11 8.13989 29.27 8.13989Z" fill="#007BC0"/>
<path d="M36.5298 3.64014H33.21V6.05017C33.21 8.22017 31.44 9.99011 29.27 9.99011C27.1 9.99011 25.3301 8.22017 25.3301 6.05017V3.64014H17.75V6.05017C17.75 8.22017 15.9801 9.99011 13.8101 9.99011C11.6401 9.99011 9.87012 8.22017 9.87012 6.05017V3.64014H6.29004C3.04004 3.64014 0.399902 6.28015 0.399902 9.53015V37.4701C0.399902 40.7201 3.03004 43.3601 6.29004 43.3601H36.52C39.77 43.3601 42.4102 40.7201 42.4102 37.4701V9.53015C42.4102 6.28015 39.77 3.64014 36.52 3.64014H36.5298ZM39.5498 37.4701C39.5498 39.1401 38.1898 40.4901 36.5298 40.4901H6.2998C4.6298 40.4901 3.27979 39.1301 3.27979 37.4701V13.2501H39.5498V37.4701Z" fill="#007BC0"/>
<path d="M19.9502 32.5498H14.6499V37.8497H19.9502V32.5498Z" fill="#007BC0"/>
<path d="M19.9502 24.3301H14.6499V29.6301H19.9502V24.3301Z" fill="#007BC0"/>
<path d="M11.73 32.5498H6.43018V37.8497H11.73V32.5498Z" fill="#007BC0"/>
<path d="M11.73 24.3301H6.43018V29.6301H11.73V24.3301Z" fill="#007BC0"/>
<path d="M36.3901 16.1099H31.0898V21.4099H36.3901V16.1099Z" fill="#007BC0"/>
<path d="M28.1699 16.1099H22.8701V21.4099H28.1699V16.1099Z" fill="#007BC0"/>
<path d="M29.25 25.0999L27.6802 23.8799L24.7998 27.5698L23.1001 26.2098L21.8501 27.7699L25.1401 30.3999L29.25 25.0999Z" fill="#007BC0"/>
<path d="M36.3901 24.3301H31.0898V29.6301H36.3901V24.3301Z" fill="#007BC0"/>
<path d="M28.1699 32.5498H22.8701V37.8497H28.1699V32.5498Z" fill="#007BC0"/>
<path d="M19.9502 16.1099H14.6499V21.4099H19.9502V16.1099Z" fill="#007BC0"/>
</svg>
