<svg width="45" height="46" viewBox="0 0 45 46" fill="none" xmlns="http://www.w3.org/2000/svg">
<path d="M31.11 12.4999L18.1 18.93L11.81 31.8199C11.58 32.2999 11.67 32.89 12.05 33.28C12.43 33.66 13.0199 33.76 13.5099 33.52L26.3898 27.2199L26.54 26.91L26.9799 26.01L32.81 14.2099C33.05 13.7199 32.95 13.1399 32.57 12.7499C32.18 12.3699 31.6 12.27 31.11 12.51V12.4999ZM15.55 29.78V29.7499L15.54 29.76L19.9399 20.7499L24.56 25.3699L15.55 29.77V29.78Z" fill="#007BC0"/>
<path d="M38.0503 7.26001C34.0303 3.23001 28.4503 0.73999 22.3103 0.73999C16.1703 0.73999 10.5903 3.24001 6.57031 7.26001C2.54031 11.28 0.050293 16.86 0.050293 23C0.050293 29.14 2.55031 34.72 6.57031 38.74C10.5903 42.76 16.1703 45.26 22.3103 45.26C28.4503 45.26 34.0303 42.76 38.0503 38.74C42.0803 34.72 44.5703 29.14 44.5703 23C44.5703 16.86 42.0703 11.28 38.0503 7.26001ZM34.6902 35.39C31.5102 38.56 27.1503 40.52 22.3003 40.52C17.4503 40.52 13.0902 38.56 9.91016 35.39C6.74016 32.21 4.78027 27.85 4.78027 23C4.78027 18.16 6.74016 13.79 9.91016 10.61C13.0902 7.43999 17.4503 5.47998 22.3003 5.47998C27.1403 5.47998 31.5102 7.43999 34.6902 10.61C37.8602 13.79 39.8203 18.15 39.8203 23C39.8203 27.85 37.8602 32.21 34.6902 35.39Z" fill="#007BC0"/>
<path d="M22.3101 10.4601C22.9701 10.4601 23.5 9.93014 23.5 9.27014C23.5 8.61014 22.9701 8.08008 22.3101 8.08008C21.6501 8.08008 21.1201 8.61014 21.1201 9.27014C21.1201 9.93014 21.6501 10.4601 22.3101 10.4601Z" fill="#007BC0"/>
<path d="M22.3101 35.55C21.6501 35.55 21.1201 36.08 21.1201 36.74C21.1201 37.4 21.6501 37.9301 22.3101 37.9301C22.9701 37.9301 23.5 37.4 23.5 36.74C23.5 36.08 22.9701 35.55 22.3101 35.55Z" fill="#007BC0"/>
<path d="M8.57007 21.8101C7.91007 21.8101 7.37988 22.34 7.37988 23C7.37988 23.66 7.91007 24.1899 8.57007 24.1899C9.23007 24.1899 9.76001 23.66 9.76001 23C9.76001 22.34 9.23007 21.8101 8.57007 21.8101Z" fill="#007BC0"/>
<path d="M36.04 24.1899C36.7 24.1899 37.23 23.66 37.23 23C37.23 22.34 36.7 21.8101 36.04 21.8101C35.38 21.8101 34.8501 22.34 34.8501 23C34.8501 23.66 35.38 24.1899 36.04 24.1899Z" fill="#007BC0"/>
</svg>
