<svg width="40" height="40" viewBox="0 0 40 40" fill="none" xmlns="http://www.w3.org/2000/svg">
<path d="M20 40C31.0457 40 40 31.0457 40 20C40 8.9543 31.0457 0 20 0C8.9543 0 0 8.9543 0 20C0 31.0457 8.9543 40 20 40Z" fill="#007BC0"/>
<path d="M21.75 15.7599H21.2999C20.3899 16.1799 19.32 16.1999 18.37 15.7599H17.9199C16.8599 15.7599 16 16.6199 16 17.6799V23.12C16 23.65 16.43 24.08 16.96 24.08H17.6V29.5199C17.6 30.0499 18.0299 30.48 18.5599 30.48H21.12C21.65 30.48 22.08 30.0499 22.08 29.5199V24.08H22.72C23.25 24.08 23.6799 23.65 23.6799 23.12V17.6799C23.6799 16.6199 22.8199 15.7599 21.7599 15.7599H21.75ZM19.83 10C21.24 10 22.3899 11.1499 22.3899 12.5599C22.3899 13.9699 21.24 15.12 19.83 15.12C18.42 15.12 17.2699 13.9699 17.2699 12.5599C17.2699 11.1499 18.42 10 19.83 10Z" fill="white"/>
</svg>
