<svg width="31" height="48" viewBox="0 0 31 48" fill="none" xmlns="http://www.w3.org/2000/svg">
<path d="M17.7 9.40991C20.13 9.40991 22.0901 7.4399 22.0901 5.0199C22.0901 2.5999 20.12 0.629883 17.7 0.629883C15.28 0.629883 13.3101 2.5999 13.3101 5.0199C13.3101 7.4399 15.28 9.40991 17.7 9.40991Z" fill="#007BC0"/>
<path d="M29.6402 22.53L24.6104 19.88L22.4903 15.52C21.4203 13.32 19.3703 11.7599 16.9703 11.3199L14.7903 10.91C13.6903 10.71 12.5603 10.85 11.5503 11.33L5.20025 14.33C4.49025 14.66 3.94018 15.24 3.63018 15.96L0.800344 22.5601C0.620344 22.9801 0.620335 23.45 0.790335 23.87C0.960335 24.29 1.30027 24.63 1.72027 24.8L1.78032 24.83C2.62032 25.17 3.59027 24.79 3.97027 23.97L6.56035 18.35L10.6702 17.02L6.60039 35.1L2.64019 44.98C2.42019 45.53 2.45026 46.14 2.71026 46.67C2.97026 47.2 3.44031 47.59 4.01031 47.75L4.18023 47.8C5.09023 48.05 6.06032 47.66 6.53032 46.84L11.2303 38.73L14.0303 33.18L19.1402 38.8199L22.9102 46.8101C23.3402 47.7101 24.3404 48.18 25.3104 47.93H25.3504C25.9104 47.77 26.3802 47.4 26.6602 46.89C26.9302 46.38 26.9803 45.78 26.7903 45.23L24.0103 37.1899C23.6203 36.0599 23.0403 35.0001 22.3003 34.0601L17.7903 28.1L19.4402 19.5L21.5704 22.21C21.8304 22.55 22.1704 22.81 22.5604 22.99L28.1702 25.52C28.5802 25.7 29.0402 25.71 29.4502 25.55C29.8602 25.39 30.1904 25.06 30.3704 24.65L30.3902 24.61C30.7202 23.82 30.3902 22.92 29.6402 22.52V22.53Z" fill="#007BC0"/>
</svg>
